<svg width="54" height="54" viewBox="0 0 54 54" fill="none" xmlns="http://www.w3.org/2000/svg">
<path d="M15 0C6.72949 0 0 6.72949 0 15V39C0 47.2705 6.72949 54 15 54H39C47.2705 54 54 47.2705 54 39V15C54 6.72949 47.2705 0 39 0H15ZM15 6H39C43.9629 6 48 10.0371 48 15V39C48 43.9629 43.9629 48 39 48H15C10.0371 48 6 43.9629 6 39V15C6 10.0371 10.0371 6 15 6ZM42 9C40.3418 9 39 10.3418 39 12C39 13.6582 40.3418 15 42 15C43.6582 15 45 13.6582 45 12C45 10.3418 43.6582 9 42 9ZM27 12C18.7295 12 12 18.7295 12 27C12 35.2705 18.7295 42 27 42C35.2705 42 42 35.2705 42 27C42 18.7295 35.2705 12 27 12ZM27 18C31.9629 18 36 22.0371 36 27C36 31.9629 31.9629 36 27 36C22.0371 36 18 31.9629 18 27C18 22.0371 22.0371 18 27 18Z" fill="white"/>
</svg>
