<svg width="231" height="96" viewBox="0 0 231 96" fill="none" xmlns="http://www.w3.org/2000/svg">
<path d="M88.9991 39.2386H94.3792L104.985 68.4631H105.139C105.088 67.7813 105.019 67.0227 104.934 66.1875C104.849 65.3523 104.771 64.4063 104.704 63.3495C104.635 62.2756 104.575 61.0653 104.524 59.7188C104.473 58.3722 104.447 56.8552 104.447 55.1677V39.2386H110.39V82.9091H104.959L94.4047 54.4517H94.1999C94.2509 55.2188 94.3194 56.054 94.4047 56.9574C94.4899 57.8438 94.5665 58.8921 94.635 60.1023C94.7035 61.3125 94.7632 62.7273 94.8142 64.3466C94.866 65.9489 94.8915 67.858 94.8915 70.0739V82.9091H88.9991V39.2386ZM117.743 39.2386H124.43V71.2501C124.43 72.6137 124.498 73.7469 124.634 74.6509C124.771 75.5542 124.985 76.2786 125.275 76.824C125.582 77.352 125.966 77.736 126.428 77.9746C126.906 78.1964 127.47 78.3069 128.118 78.3069C128.768 78.3069 129.331 78.1964 129.81 77.9746C130.304 77.736 130.706 77.352 131.013 76.824C131.338 76.2786 131.577 75.5542 131.73 74.6509C131.902 73.7469 131.987 72.6137 131.987 71.2501V39.2386H138.596V69.4858C138.596 71.6165 138.426 73.44 138.084 74.9571C137.742 76.4742 137.29 77.744 136.727 78.7673C136.162 79.7899 135.514 80.5993 134.779 81.1964C134.062 81.7928 133.31 82.2531 132.525 82.5768C131.757 82.8837 130.988 83.0793 130.219 83.1651C129.451 83.2502 128.751 83.2924 128.118 83.2924C127.487 83.2924 126.786 83.2502 126.018 83.1651C125.266 83.0793 124.506 82.8837 123.738 82.5768C122.969 82.2531 122.226 81.7928 121.509 81.1964C120.792 80.5993 120.151 79.7899 119.587 78.7673C119.024 77.744 118.572 76.4829 118.23 74.9833C117.905 73.4662 117.743 71.6336 117.743 69.4858V39.2386ZM145.924 39.2386H153.122C153.942 39.2386 154.839 39.2728 155.812 39.341C156.803 39.4091 157.785 39.5796 158.758 39.8523C159.749 40.108 160.697 40.5 161.602 41.0285C162.524 41.5568 163.336 42.2813 164.036 43.2017C164.753 44.1222 165.325 45.2813 165.752 46.679C166.179 48.0597 166.393 49.7386 166.393 51.716V52.8154C166.393 56.1392 165.915 58.8495 164.958 60.9461C164.002 63.0256 162.593 64.5256 160.731 65.4461L167.75 82.9091H160.731L154.916 66.5711H152.431V82.9091H145.924V39.2386ZM153.43 61.7898C154.591 61.7898 155.573 61.662 156.376 61.4063C157.178 61.1506 157.828 60.7245 158.323 60.1279C158.818 59.5142 159.177 58.7131 159.399 57.7245C159.621 56.7188 159.732 55.483 159.732 54.017V50.5653C159.732 49.4404 159.63 48.4688 159.424 47.6506C159.219 46.8324 158.87 46.1592 158.374 45.6307C157.896 45.1023 157.256 44.7103 156.453 44.4546C155.65 44.1989 154.642 44.0711 153.43 44.0711H152.431V61.7898H153.43ZM172.772 39.2386H181.431L185.632 56.1392C186.077 58.0142 186.426 59.804 186.683 61.5085C186.939 63.196 187.187 64.7898 187.426 66.2898H187.63C187.869 64.7898 188.117 63.196 188.374 61.5085C188.629 59.804 188.98 58.0142 189.424 56.1392L193.754 39.2386H202.233V82.9091H196.034V68.4631C196.034 66.2472 196.051 64.1165 196.085 62.0711C196.136 60.0256 196.196 58.1506 196.264 56.4461C196.333 54.7245 196.409 53.2074 196.494 51.8949C196.58 50.5824 196.657 49.5426 196.725 48.7756H196.239L189.629 77.2844H185.427L178.766 48.7756H178.28C178.348 49.5426 178.425 50.5824 178.511 51.8949C178.596 53.2074 178.672 54.7245 178.741 56.4461C178.809 58.1506 178.86 60.0256 178.895 62.0711C178.946 64.1165 178.972 66.2472 178.972 68.4631V82.9091H172.772V39.2386ZM214.53 39.2386H222.164L230.26 82.9091H223.548L222.344 75.0851H214.351L213.198 82.9091H206.46L214.53 39.2386ZM221.575 70.0995L218.501 48.341H218.219L215.119 70.0995H221.575Z" fill="white"/>
<path d="M105.343 24.8921C105.343 26.3239 105.099 27.6307 104.609 28.8125C104.12 29.9943 103.454 31.0113 102.611 31.8636C101.768 32.7046 100.778 33.358 99.639 33.8239C98.5124 34.2897 97.2991 34.5228 96.0013 34.5228C94.7151 34.5228 93.5018 34.2841 92.3636 33.8068C91.2362 33.3295 90.2459 32.6648 89.3919 31.8125C88.5495 30.9602 87.8835 29.9489 87.3938 28.7784C86.9041 27.5966 86.6592 26.3012 86.6592 24.8921V8.66479H91.339V17.1875C91.5897 16.8693 91.8914 16.5852 92.244 16.3352C92.6084 16.0852 92.9953 15.8807 93.4056 15.7216C93.8268 15.5625 94.2597 15.4432 94.7034 15.3636C95.1472 15.2727 95.5801 15.2273 96.0013 15.2273C97.2991 15.2273 98.5124 15.4716 99.639 15.9602C100.778 16.4375 101.768 17.1079 102.611 17.9716C103.454 18.8352 104.12 19.858 104.609 21.0398C105.099 22.2103 105.343 23.4943 105.343 24.8921ZM100.647 24.8921C100.647 24.1875 100.521 23.5341 100.271 22.9318C100.032 22.3182 99.7016 21.7897 99.2804 21.3466C98.8593 20.9034 98.3637 20.5568 97.7946 20.3068C97.2371 20.0568 96.6389 19.9318 96.0013 19.9318C95.3636 19.9318 94.7603 20.0739 94.1912 20.358C93.633 20.6307 93.1433 21 92.7221 21.4659C92.3009 21.9204 91.9708 22.4489 91.7318 23.0511C91.4928 23.642 91.3732 24.2557 91.3732 24.8921C91.3732 25.5966 91.4928 26.25 91.7318 26.8523C91.9708 27.4545 92.3009 27.9773 92.7221 28.4204C93.1433 28.8636 93.633 29.2159 94.1912 29.4772C94.7603 29.7273 95.3636 29.8523 96.0013 29.8523C96.6389 29.8523 97.2371 29.7273 97.7946 29.4772C98.3637 29.2159 98.8593 28.8636 99.2804 28.4204C99.7016 27.9773 100.032 27.4545 100.271 26.8523C100.521 26.25 100.647 25.5966 100.647 24.8921ZM115.215 29.7159C115.397 29.7727 115.579 29.8125 115.762 29.8352C115.944 29.8466 116.126 29.8523 116.308 29.8523C116.764 29.8523 117.202 29.7897 117.623 29.6648C118.045 29.5398 118.437 29.3636 118.802 29.1364C119.178 28.8977 119.508 28.6137 119.793 28.2841C120.089 27.9432 120.328 27.5681 120.51 27.1591L123.925 30.5852C123.493 31.1988 122.992 31.75 122.423 32.2386C121.865 32.7273 121.255 33.142 120.595 33.483C119.947 33.8239 119.257 34.0796 118.529 34.25C117.811 34.4318 117.071 34.5228 116.308 34.5228C115.022 34.5228 113.809 34.2841 112.67 33.8068C111.543 33.3295 110.553 32.6648 109.699 31.8125C108.856 30.9602 108.19 29.9489 107.701 28.7784C107.211 27.5966 106.966 26.3012 106.966 24.8921C106.966 23.4489 107.211 22.1307 107.701 20.9375C108.19 19.7443 108.856 18.7273 109.699 17.8864C110.553 17.0454 111.543 16.3921 112.67 15.9261C113.809 15.4602 115.022 15.2273 116.308 15.2273C117.071 15.2273 117.817 15.3182 118.546 15.5C119.275 15.6818 119.963 15.9432 120.613 16.2841C121.273 16.625 121.888 17.0454 122.457 17.5454C123.026 18.0341 123.527 18.5852 123.96 19.1988L115.215 29.7159ZM117.607 20.1193C117.39 20.0398 117.174 19.9887 116.957 19.9659C116.753 19.9432 116.536 19.9318 116.308 19.9318C115.671 19.9318 115.067 20.0511 114.498 20.2897C113.94 20.517 113.451 20.8466 113.029 21.2784C112.619 21.7103 112.295 22.2329 112.055 22.8466C111.816 23.4489 111.697 24.1307 111.697 24.8921C111.697 25.0625 111.703 25.2557 111.714 25.4716C111.737 25.6875 111.765 25.9091 111.8 26.1364C111.845 26.3523 111.897 26.5625 111.953 26.767C112.01 26.9716 112.084 27.1534 112.176 27.3125L117.607 20.1193ZM143.891 34.1818H142.764L140.954 31.6761C140.509 32.0739 140.037 32.4489 139.536 32.8012C139.046 33.142 138.529 33.4432 137.982 33.7046C137.436 33.9545 136.872 34.1534 136.291 34.3012C135.722 34.4489 135.141 34.5228 134.549 34.5228C133.262 34.5228 132.05 34.3068 130.911 33.875C129.784 33.4432 128.793 32.8182 127.939 32C127.097 31.1705 126.431 30.1591 125.941 28.9659C125.451 27.7727 125.206 26.4148 125.206 24.8921C125.206 23.4716 125.451 22.1705 125.941 20.9887C126.431 19.7955 127.097 18.7727 127.939 17.9204C128.793 17.0682 129.784 16.4091 130.911 15.9432C132.05 15.4659 133.262 15.2273 134.549 15.2273C135.141 15.2273 135.727 15.3012 136.308 15.4489C136.889 15.5966 137.452 15.8012 137.999 16.0625C138.545 16.3238 139.063 16.6307 139.553 16.983C140.054 17.3352 140.521 17.7159 140.954 18.125L142.764 15.9602H143.891V34.1818ZM139.195 24.8921C139.195 24.2557 139.069 23.642 138.819 23.0511C138.58 22.4489 138.249 21.9204 137.828 21.4659C137.406 21 136.912 20.6307 136.342 20.358C135.784 20.0739 135.187 19.9318 134.549 19.9318C133.911 19.9318 133.308 20.0398 132.738 20.2557C132.181 20.4716 131.691 20.7897 131.27 21.2102C130.86 21.6307 130.535 22.1534 130.296 22.7784C130.057 23.3921 129.937 24.0966 129.937 24.8921C129.937 25.6875 130.057 26.3977 130.296 27.0227C130.535 27.6364 130.86 28.1534 131.27 28.5739C131.691 28.9943 132.181 29.3125 132.738 29.5284C133.308 29.7443 133.911 29.8523 134.549 29.8523C135.187 29.8523 135.784 29.7159 136.342 29.4432C136.912 29.1591 137.406 28.7897 137.828 28.3352C138.249 27.8693 138.58 27.3409 138.819 26.75C139.069 26.1477 139.195 25.5284 139.195 24.8921ZM156.632 34.1818C155.505 34.1818 154.446 33.9716 153.455 33.5511C152.465 33.1193 151.594 32.5341 150.842 31.7955C150.102 31.0454 149.516 30.1761 149.083 29.1875C148.662 28.1988 148.451 27.142 148.451 26.017V20.5966H146.18V15.9602H148.451V8.66479H153.097V15.9602H160.168V20.5966H153.097V26.017C153.097 26.5057 153.188 26.9659 153.37 27.3977C153.552 27.8182 153.802 28.1875 154.121 28.5057C154.441 28.8239 154.816 29.0796 155.249 29.2727C155.682 29.4545 156.142 29.5454 156.632 29.5454H160.168V34.1818H156.632ZM172.84 34.1818H162.182V29.5454H172.84C173.159 29.5454 173.432 29.4318 173.66 29.2045C173.888 28.9773 174.001 28.7046 174.001 28.3863C174.001 28.0568 173.888 27.8409 173.66 27.7386C173.432 27.6364 173.159 27.5852 172.84 27.5852H167.989C167.181 27.5852 166.424 27.4319 165.718 27.125C165.012 26.8182 164.398 26.4034 163.874 25.8806C163.35 25.3466 162.934 24.7273 162.627 24.0227C162.331 23.3182 162.182 22.5625 162.182 21.7557C162.182 20.9489 162.331 20.1932 162.627 19.4886C162.934 18.7841 163.35 18.1705 163.874 17.6477C164.398 17.125 165.012 16.7159 165.718 16.4204C166.424 16.1136 167.181 15.9602 167.989 15.9602H177.434V20.5966H167.989C167.671 20.5966 167.398 20.7102 167.17 20.9375C166.942 21.1648 166.829 21.4375 166.829 21.7557C166.829 22.0852 166.942 22.3693 167.17 22.6079C167.398 22.8352 167.671 22.9489 167.989 22.9489H172.84C173.637 22.9489 174.388 23.0852 175.094 23.358C175.8 23.6193 176.415 23.9886 176.939 24.4659C177.463 24.9432 177.879 25.517 178.186 26.1875C178.493 26.858 178.647 27.5909 178.647 28.3863C178.647 29.1932 178.493 29.9489 178.186 30.6534C177.879 31.3466 177.463 31.9602 176.939 32.4943C176.415 33.017 175.8 33.4318 175.094 33.7386C174.388 34.0341 173.637 34.1818 172.84 34.1818Z" fill="white"/>
<path d="M77.9716 8.72729H40.8076V21.8182H77.9716V8.72729Z" fill="white"/>
<path d="M20.4038 8.72724L20.4038 82.9091H33.5205L33.5205 8.72724H20.4038Z" fill="white"/>
<path d="M0 8.72724L0 82.9091H13.1167L13.1167 8.72724H0Z" fill="white"/>
<path d="M77.9716 29.0909H40.8076V42.1818H77.9716V29.0909Z" fill="white"/>
<path d="M77.9716 49.4545H40.8076V62.5454H77.9716V49.4545Z" fill="white"/>
<path d="M77.9716 69.8182H40.8076V82.9091H77.9716V69.8182Z" fill="white"/>
</svg>
