<?xml version="1.0" encoding="UTF-8"?>
<svg xmlns="http://www.w3.org/2000/svg" xmlns:xlink="http://www.w3.org/1999/xlink" viewBox="0 0 96 96" width="96px" height="96px">
<g id="surface39111698">
<path style=" stroke:none;fill-rule:nonzero;fill:rgb(100%,100%,100%);fill-opacity:1;" d="M 82.289062 12.046875 C 80.960938 11.90625 79.515625 12.113281 78.0625 12.6875 C 76.261719 13.394531 48.058594 25.261719 21.765625 36.328125 L 13.078125 39.984375 C 9.714844 41.347656 8.015625 43.566406 8.015625 46.554688 C 8.015625 48.648438 8.902344 51.484375 13.125 53.15625 L 27.789062 59.03125 C 29.058594 62.835938 32.003906 71.667969 32.742188 74.015625 C 33.183594 75.40625 34.292969 78.914062 37.101562 79.734375 C 37.675781 79.929688 38.277344 80.03125 38.890625 80.03125 C 40.664062 80.03125 41.9375 79.207031 42.5625 78.726562 L 51.882812 70.84375 L 63.203125 81.3125 C 63.640625 81.757812 65.945312 84 69.046875 84 C 72.914062 84 75.847656 80.78125 76.460938 77.664062 C 76.792969 75.957031 87.710938 21.148438 87.710938 21.15625 C 88.691406 16.761719 86.929688 14.480469 85.796875 13.507812 C 84.828125 12.679688 83.617188 12.1875 82.289062 12.046875 Z M 79.640625 20.6875 C 78.132812 28.246094 69.910156 69.511719 68.664062 75.460938 L 52.117188 60.15625 L 40.890625 69.664062 L 44 57.5 C 44 57.5 65.449219 35.789062 66.742188 34.523438 C 67.78125 33.511719 68 33.15625 68 32.804688 C 68 32.335938 67.757812 32 67.203125 32 C 66.703125 32 66.023438 32.480469 65.664062 32.703125 C 61.089844 35.554688 41.617188 46.648438 32.03125 52.101562 L 18.125 46.546875 L 24.875 43.710938 C 42.070312 36.472656 72.695312 23.574219 79.640625 20.6875 Z M 79.640625 20.6875 "/>
</g>
</svg>
