<svg width="30" height="30" viewBox="0 0 30 30" fill="none" xmlns="http://www.w3.org/2000/svg">
<path d="M27.8589 0.0177089C27.3608 -0.0408849 26.8187 0.0453781 26.2736 0.284636C25.5982 0.579232 15.0196 5.52389 5.15743 10.1349L1.89887 11.6583C0.637354 12.2264 0 13.1508 0 14.396C0 15.2684 0.332596 16.45 1.91646 17.1466L7.41674 19.5945C7.89293 21.1798 8.99767 24.8598 9.27459 25.838C9.44016 26.4174 9.85627 27.879 10.9097 28.2208C11.1251 28.3022 11.3508 28.3445 11.5808 28.3445C12.246 28.3445 12.7236 28.0011 12.9581 27.8009L16.454 24.5164L20.7001 28.8784C20.8642 29.0639 21.7286 29.9982 22.892 29.9982C24.3425 29.9982 25.4429 28.657 25.6729 27.3582C25.7974 26.6469 29.8926 3.81003 29.8926 3.81328C30.2604 1.98223 29.5996 1.03171 29.1747 0.626432C28.8113 0.281381 28.3571 0.0763026 27.8589 0.0177089ZM26.8655 3.61797C26.3 6.76738 23.2158 23.9614 22.7484 26.4402L16.5419 20.0633L12.331 24.0249L13.4972 18.9565C13.4972 18.9565 21.5425 9.91029 22.0275 9.38294C22.4173 8.96139 22.4993 8.81328 22.4993 8.6668C22.4993 8.47149 22.4085 8.33151 22.2004 8.33151C22.0129 8.33151 21.7579 8.53171 21.6231 8.62448C19.9074 9.81263 12.6035 14.435 9.00793 16.7072L3.79189 14.3927L6.32372 13.2111C12.7734 10.1951 24.2605 4.82077 26.8655 3.61797Z" fill="white"/>
</svg>
