<svg width="30" height="30" viewBox="0 0 30 30" fill="none" xmlns="http://www.w3.org/2000/svg">
<path d="M8.33333 0C3.73861 0 0 3.73861 0 8.33333V21.6667C0 26.2614 3.73861 30 8.33333 30H21.6667C26.2614 30 30 26.2614 30 21.6667V8.33333C30 3.73861 26.2614 0 21.6667 0H8.33333ZM8.33333 3.33333H21.6667C24.4238 3.33333 26.6667 5.57617 26.6667 8.33333V21.6667C26.6667 24.4238 24.4238 26.6667 21.6667 26.6667H8.33333C5.57617 26.6667 3.33333 24.4238 3.33333 21.6667V8.33333C3.33333 5.57617 5.57617 3.33333 8.33333 3.33333ZM23.3333 5C22.4121 5 21.6667 5.74544 21.6667 6.66667C21.6667 7.58789 22.4121 8.33333 23.3333 8.33333C24.2546 8.33333 25 7.58789 25 6.66667C25 5.74544 24.2546 5 23.3333 5ZM15 6.66667C10.4053 6.66667 6.66667 10.4053 6.66667 15C6.66667 19.5947 10.4053 23.3333 15 23.3333C19.5947 23.3333 23.3333 19.5947 23.3333 15C23.3333 10.4053 19.5947 6.66667 15 6.66667ZM15 10C17.7572 10 20 12.2428 20 15C20 17.7572 17.7572 20 15 20C12.2428 20 10 17.7572 10 15C10 12.2428 12.2428 10 15 10Z" fill="white"/>
</svg>
